HIERARCHY
ROOT SpineBase
{
  OFFSET 0.000000 0.000000 0.000000
  CHANNELS 6 Xposition Yposition Zposition Zrotation Xrotation Yrotation
  JOINT SpineMid
  {
    OFFSET -0.000000 32.351965 0.000000
    CHANNELS 3 Zrotation Xrotation Yrotation
    JOINT SpineShoulder
    {
      OFFSET 0.070993 23.978359 -0.819856
      CHANNELS 3 Zrotation Xrotation Yrotation
      JOINT Neck
      {
        OFFSET 0.006560 7.910300 -0.617007
        CHANNELS 3 Zrotation Xrotation Yrotation
        JOINT Head
        {
          OFFSET -5.268418 12.835488 3.606803
          CHANNELS 3 Zrotation Xrotation Yrotation
          End Site
          {
            OFFSET 0 0 0
          }
        }
      }
      JOINT ShoulderLeft
      {
        OFFSET -12.644841 -3.609244 15.003319
        CHANNELS 3 Zrotation Xrotation Yrotation
        JOINT ElbowLeft
        {
          OFFSET -2.275060 -27.766377 -0.020137
          CHANNELS 3 Zrotation Xrotation Yrotation
          JOINT WristLeft
          {
            OFFSET -0.268155 -24.435336 -11.027375
            CHANNELS 3 Zrotation Xrotation Yrotation
            JOINT HandLeft
            {
              OFFSET 1.227840 -4.180257 -3.092198
              CHANNELS 3 Zrotation Xrotation Yrotation
              JOINT HandTipLeft
              {
                OFFSET 0.915212 -5.371626 -1.692781
                CHANNELS 3 Zrotation Xrotation Yrotation
                End Site
                {
                  OFFSET 0 0 0
                }
              }
              JOINT ThumbLeft
              {
                OFFSET -2.569446 -2.419416 -2.346833
                CHANNELS 3 Zrotation Xrotation Yrotation
                End Site
                {
                  OFFSET 0 0 0
                }
              }
            }
          }
        }
      }
      JOINT ShoulderRight
      {
        OFFSET 12.568067 -2.580145 -11.161926
        CHANNELS 3 Zrotation Xrotation Yrotation
        JOINT ElbowRight
        {
          OFFSET 7.832786 -22.605477 -4.248563
          CHANNELS 3 Zrotation Xrotation Yrotation
          JOINT WristRight
          {
            OFFSET -7.951700 -21.797534 -4.968333
            CHANNELS 3 Zrotation Xrotation Yrotation
            JOINT HandRight
            {
              OFFSET -4.067407 -6.413559 -0.224135
              CHANNELS 3 Zrotation Xrotation Yrotation
              JOINT HandTipRight
              {
                OFFSET -3.086097 -6.631443 -0.197132
                CHANNELS 3 Zrotation Xrotation Yrotation
                End Site
                {
                  OFFSET 0 0 0
                }
              }
              JOINT ThumbRight
              {
                OFFSET -3.288320 2.374902 -1.224482
                CHANNELS 3 Zrotation Xrotation Yrotation
                End Site
                {
                  OFFSET 0 0 0
                }
              }
            }
          }
        }
      }
    }
  }
  JOINT HipLeft
  {
    OFFSET -6.107344 -0.322078 1.270522
    CHANNELS 3 Zrotation Xrotation Yrotation
    JOINT KneeLeft
    {
      OFFSET 6.235953 -34.490575 0.915663
      CHANNELS 3 Zrotation Xrotation Yrotation
      JOINT AnkleLeft
      {
        OFFSET 12.725066 -35.287552 3.150221
        CHANNELS 3 Zrotation Xrotation Yrotation
        JOINT FootLeft
        {
          OFFSET -3.489941 -6.284025 -3.261475
          CHANNELS 3 Zrotation Xrotation Yrotation
          End Site
          {
            OFFSET 0 0 0
          }
        }
      }
    }
  }
  JOINT HipRight
  {
    OFFSET 5.383314 1.724818 -8.903915
    CHANNELS 3 Zrotation Xrotation Yrotation
    JOINT KneeRight
    {
      OFFSET 6.834853 -31.164060 -5.398816
      CHANNELS 3 Zrotation Xrotation Yrotation
      JOINT AnkleRight
      {
        OFFSET 8.281023 -37.224996 6.779503
        CHANNELS 3 Zrotation Xrotation Yrotation
        JOINT FootRight
        {
          OFFSET -2.677201 -7.708670 0.233710
          CHANNELS 3 Zrotation Xrotation Yrotation
          End Site
          {
            OFFSET 0 0 0
          }
        }
      }
    }
  }
}
MOTION
Frames: 14
Frame Time: 0.033333
36.167487 81.939649 366.549390 0.000000 0.000000 41.523379 -0.000000 0.000000 -41.523379 -0.000000 0.000000 0.000000 -0.000000 0.000000 0.000000 0.000000 0.000000 0.000000 -0.000000 0.000000 0.000000 -0.000000 0.000000 0.000000 -0.000000 0.000000 0.000000 -0.000000 0.000000 0.000000 0.000000 0.000000 0.000000 0.000000 0.000000 0.000000 -0.000000 0.000000 0.000000 -0.000000 0.000000 0.000000 -0.000000 0.000000 0.000000 -0.000000 0.000000 0.000000 0.000000 0.000000 0.000000 0.000000 0.000000 0.000000 -0.000000 0.000000 -41.523379 -0.000000 0.000000 0.000000 -0.000000 0.000000 0.000000 0.000000 0.000000 0.000000 -0.000000 0.000000 -41.523379 -0.000000 0.000000 0.000000 -0.000000 0.000000 0.000000 0.000000 0.000000 0.000000
36.284691 81.935128 366.190912 -0.150129 0.047095 40.919981 0.082594 -0.133921 -40.919823 -0.000000 0.000000 0.000000 -0.000000 0.000000 0.000000 0.000000 0.000000 0.000000 -0.320592 -1.543729 0.122381 0.324006 1.543016 -0.131063 0.916089 -0.750400 -0.894287 -0.019101 1.420383 0.714233 0.000000 0.000000 0.000000 0.000000 0.000000 0.000000 -0.000000 0.000000 0.000000 -0.000000 0.000000 0.000000 -0.000000 0.000000 0.000000 -1.566661 -1.036201 0.511520 0.000000 0.000000 0.000000 0.000000 0.000000 0.000000 0.082594 -0.133921 -40.919823 -0.000000 0.000000 0.000000 1.339108 0.886107 -1.200452 0.000000 0.000000 0.000000 0.082594 -0.133921 -40.919823 -0.000000 0.000000 0.000000 -2.536643 6.490938 -2.176498 0.000000 0.000000 0.000000
36.393096 81.930574 365.849671 -0.279742 0.071123 40.450118 0.166733 -0.235615 -40.449602 -0.000000 0.000000 0.000000 -0.000000 0.000000 0.000000 0.000000 0.000000 0.000000 -0.575029 -2.830089 0.218059 0.586506 2.827735 -0.246740 1.480319 -1.506780 -1.527180 0.378461 2.726152 1.096566 0.000000 0.000000 0.000000 0.000000 0.000000 0.000000 -0.000000 0.000000 0.000000 -0.000000 0.000000 0.000000 -0.277686 0.849754 -0.526202 -2.442846 -2.462516 1.265213 0.000000 0.000000 0.000000 0.000000 0.000000 0.000000 0.166733 -0.235615 -40.449602 -0.358238 -0.774974 -0.314036 2.816189 2.445648 -1.971759 0.000000 0.000000 0.000000 0.166733 -0.235615 -40.449602 -0.000000 0.000000 0.000000 -4.713455 12.466692 -3.929967 0.000000 0.000000 0.000000
36.492701 81.925986 365.525668 -0.388924 0.072135 40.115344 0.250953 -0.305758 -40.114430 -0.000000 0.000000 0.000000 -0.000000 0.000000 0.000000 0.000000 0.000000 0.000000 -0.763654 -3.853789 0.290592 0.784946 3.849515 -0.342663 1.611947 -2.228496 -1.834407 1.216957 3.769683 1.080207 0.000000 0.000000 0.000000 0.000000 0.000000 0.000000 -0.000000 0.000000 0.000000 -0.000000 0.000000 0.000000 -0.600604 0.840451 -0.505805 -2.925787 -2.531096 1.280129 0.000000 0.000000 0.000000 0.000000 0.000000 0.000000 0.250953 -0.305758 -40.114430 -0.493107 -1.108482 -0.448841 3.858316 3.457621 -2.761472 0.000000 0.000000 0.000000 0.250953 -0.305758 -40.114430 -0.000000 0.000000 0.000000 -6.552670 17.695458 -5.288675 0.000000 0.000000 0.000000
36.583507 81.921365 365.218901 -0.477740 0.050164 39.916255 0.334235 -0.345023 -39.915039 -0.000000 0.000000 0.000000 -0.174830 0.840747 0.394939 0.000000 0.000000 0.000000 -0.886795 -4.611640 0.342789 0.917302 4.605681 -0.415386 1.245583 -2.876446 -1.762159 2.464563 4.399243 0.633186 0.000000 0.000000 0.000000 0.000000 0.000000 0.000000 -0.000000 0.000000 0.000000 -0.000000 0.000000 0.000000 -1.043105 0.539134 -0.298778 -2.940886 -1.812298 0.921009 0.000000 0.000000 0.000000 0.000000 0.000000 0.000000 -0.601943 -0.675500 -40.091350 -0.090335 -0.551914 -0.395012 4.654874 4.339499 -3.406755 0.000000 0.000000 0.000000 0.334235 -0.345023 -39.915039 -0.000000 0.000000 0.000000 -8.091501 22.057760 -6.298706 0.000000 0.000000 0.000000
36.665512 81.916710 364.929373 -0.546246 0.005227 39.852552 0.416007 -0.354052 -39.851241 -0.000000 0.000000 0.000000 -0.277321 0.901350 0.449533 0.000000 0.000000 0.000000 -0.944747 -5.101891 0.376654 0.982102 5.094850 -0.462441 0.342262 -3.420275 -1.274857 4.042844 4.513522 -0.236912 0.000000 0.000000 0.000000 0.000000 0.000000 0.000000 -0.000000 0.000000 0.000000 -0.000000 0.000000 0.000000 -1.596308 -0.050460 0.086327 -2.480511 -0.307402 0.188073 0.000000 0.000000 0.000000 0.000000 0.000000 0.000000 -0.720692 -0.696227 -40.058361 -0.016786 -0.675871 -0.468807 5.205898 5.098261 -3.900555 0.000000 0.000000 0.000000 -0.329833 -1.067664 -40.065874 -0.420960 0.432217 -0.017926 -8.991290 26.069338 -6.654144 0.000000 0.000000 0.000000
36.746882 81.911205 364.660806 -0.574777 -0.019914 40.026806 0.452945 -0.354413 -40.025505 -0.000000 0.000000 0.000000 -0.350403 0.947102 0.489588 0.000000 0.000000 0.000000 -0.882759 -5.302547 0.394304 0.923118 5.295689 -0.477874 -2.580930 -2.107927 1.268370 6.517265 0.287875 -2.962778 0.000000 0.000000 0.000000 0.000000 0.000000 0.000000 -0.781528 -0.261112 0.054782 1.579290 0.719360 -0.415149 -3.555415 -1.448421 1.000802 -1.673946 2.662616 -1.219217 0.000000 0.000000 0.000000 0.000000 0.000000 0.000000 -0.875746 -0.719797 -40.264053 0.119680 -0.659401 -0.485834 5.450996 5.722401 -4.308715 0.000000 0.000000 0.000000 -0.598430 -1.269675 -40.305619 -0.417575 0.693390 0.007513 -11.842916 31.876791 -7.363579 0.000000 0.000000 0.000000
36.824041 81.885448 364.397349 -0.591820 -0.091432 40.390829 0.510006 -0.313858 -40.389905 -0.000000 0.000000 0.000000 -0.575954 0.916485 0.542534 0.000000 0.000000 0.000000 -0.759342 -5.262755 0.396960 1.645868 5.442924 -0.929080 -5.172395 -3.122613 2.692929 8.778419 -1.683737 -4.727767 0.000000 0.000000 0.000000 0.000000 0.000000 0.000000 -0.989555 -0.468376 0.019722 2.048472 0.877098 -0.431968 -3.889259 -1.809652 1.289445 -0.909287 4.166037 -1.970559 0.000000 0.000000 0.000000 0.000000 0.000000 0.000000 -0.977440 -0.658121 -40.648652 0.268952 -0.727037 -0.523458 5.383787 6.475846 -4.585764 0.000000 0.000000 0.000000 -0.892324 -1.505976 -40.760633 -0.438949 1.032164 0.055432 -10.994277 30.745826 -7.198850 0.000000 0.000000 0.000000
36.889194 81.884414 364.147735 -0.594530 -0.215270 40.678313 0.591195 -0.224268 -40.678273 -0.000000 0.000000 0.000000 -0.752066 0.728187 0.515473 0.000000 0.000000 0.000000 -0.576375 -4.859103 0.374192 1.499560 4.810121 -0.899183 -6.992489 -4.339313 3.579784 11.199886 2.363824 -5.652901 0.000000 0.000000 0.000000 0.000000 0.000000 0.000000 -1.196907 -0.716669 -0.031004 3.021885 1.765390 -0.824910 -5.346569 -4.392855 2.777874 2.052277 9.269746 -4.830501 0.000000 0.000000 0.000000 0.000000 0.000000 0.000000 -0.950929 -0.507042 -40.935116 0.331795 -0.948048 -0.603216 5.332634 6.781441 -4.541366 0.000000 0.000000 0.000000 -1.079249 -1.705892 -41.141319 -0.501174 1.372164 0.123798 -14.099203 37.330553 -7.820040 0.000000 0.000000 0.000000
36.931170 81.902519 363.944444 -0.581864 -0.400267 40.954212 0.701795 -0.079103 -40.955760 -0.000000 0.000000 0.000000 -0.848521 0.477988 0.438992 0.000000 0.000000 0.000000 -0.413266 -4.301215 0.337278 1.395259 3.953501 -0.866118 -9.200068 -4.372623 5.149307 11.094072 4.413183 -6.102073 0.000000 0.000000 0.000000 0.000000 0.000000 0.000000 -1.379872 -1.002887 -0.100821 3.688969 2.455994 -1.053361 -6.111101 -6.257719 3.831539 3.248335 12.359254 -6.664900 0.000000 0.000000 0.000000 0.000000 0.000000 0.000000 -0.994925 -0.100487 -41.196501 0.673523 -1.279757 -0.698148 4.756955 6.970180 -4.132952 0.000000 0.000000 0.000000 -1.149859 -1.816346 -41.497715 -0.602816 1.723464 0.205797 -15.346850 40.172051 -8.041155 0.000000 0.000000 0.000000
36.915138 81.931541 363.756052 -0.629676 -0.638064 41.075781 0.893913 0.067236 -41.079811 -0.000000 0.000000 0.000000 -0.864284 0.350276 0.390157 0.000000 0.000000 0.000000 -0.372102 -4.240056 0.333985 1.075381 3.383635 -0.706876 -9.831337 -5.208371 5.306069 11.746100 3.465850 -6.874887 0.000000 0.000000 0.000000 0.000000 0.000000 0.000000 -1.460585 -1.187958 -0.153237 4.070764 2.739360 -1.132066 -6.321232 -7.709610 4.722225 4.859864 13.830438 -7.975800 0.000000 0.000000 0.000000 0.000000 0.000000 0.000000 -1.018517 0.379306 -41.301298 1.210176 -1.633438 -0.786139 7.657378 3.567595 -3.760903 0.000000 0.000000 0.000000 -1.035910 -1.881317 -41.683180 -0.718239 2.002555 0.284513 -14.676519 39.240258 -8.100881 0.000000 0.000000 0.000000
36.849780 81.956915 363.603924 -0.704729 -0.884866 41.015353 0.181237 -0.267534 -41.033840 0.100924 -0.031150 -0.012272 -0.555030 0.995008 0.271008 0.000000 0.000000 0.000000 -0.109034 -3.755787 0.399714 0.435387 3.242744 -0.396640 -8.694915 -5.842168 4.234597 14.566115 2.548978 -7.927507 0.000000 0.000000 0.000000 0.000000 0.000000 0.000000 -1.140750 -0.330953 -0.164995 4.215919 2.543253 -0.999940 -6.901400 -7.668240 4.817789 5.225394 14.571272 -8.409824 0.000000 0.000000 0.000000 0.000000 0.000000 0.000000 -0.990215 0.900034 -41.212058 1.911058 -2.069185 -0.874858 4.157949 7.901139 -4.178957 0.000000 0.000000 0.000000 -0.791637 -1.832197 -41.646623 -0.711093 2.093097 0.332175 -11.538570 34.449452 -8.027454 0.000000 0.000000 0.000000
36.715141 81.954925 363.478864 -0.833195 -1.148292 40.849992 0.166593 -0.315588 -40.875485 0.089351 -0.061285 -0.018829 -0.561358 0.929109 0.150779 0.000000 0.000000 0.000000 -0.272853 -4.081673 0.454568 0.001706 3.593662 -0.078658 -6.940944 -1.993239 4.369010 12.610769 -4.576952 -7.873287 0.000000 0.000000 0.000000 0.000000 0.000000 0.000000 -1.055082 -0.126666 -0.192066 3.629811 2.057065 -0.561775 -6.418080 -6.049555 3.950676 5.419185 11.728227 -6.925534 0.000000 0.000000 0.000000 0.000000 0.000000 0.000000 -1.106720 1.545911 -41.020655 2.138225 -2.635655 -1.081483 3.550764 12.051993 -5.490043 0.000000 0.000000 0.000000 -0.551559 -1.815645 -41.511756 -0.520950 2.283626 0.414976 -6.116280 25.012160 -6.968446 0.000000 0.000000 0.000000
36.514863 81.947546 363.384951 -1.027469 -1.400593 40.455150 0.165453 -0.358914 -40.491270 0.075159 -0.089816 -0.028136 -0.286031 0.643176 -0.115796 0.000000 0.000000 0.000000 -0.489174 -4.356105 0.504280 -0.733722 4.843877 0.478091 -5.596571 -0.442169 4.341969 7.540673 -5.642875 -6.574754 0.000000 0.000000 0.000000 0.000000 0.000000 0.000000 -0.919760 0.086803 -0.201705 1.506275 1.575168 0.240294 -4.088373 -5.194302 3.185931 3.065389 10.629387 -5.917142 0.000000 0.000000 0.000000 0.000000 0.000000 0.000000 -1.394783 2.183038 -40.614600 2.132458 -3.099266 -1.317189 4.260300 15.327048 -6.814567 0.000000 0.000000 0.000000 -0.258833 -1.697798 -41.104808 0.091268 2.861268 0.606831 -4.540398 24.881432 -7.847284 0.000000 0.000000 0.000000
